
<svg version="1.1" id="Layer_1" xmlns="http://www.w3.org/2000/svg" xmlns:xlink="http://www.w3.org/1999/xlink" x="0px" y="0px"
	 viewBox="0 0 864 800" style="enable-background:new 0 0 864 800;" xml:space="preserve">
<style type="text/css">
	.st0{fill:#ebebeb;stroke:#000000;stroke-width:5;stroke-miterlimit:10;}
	.st1{fill:#fff;stroke:#000000;stroke-width:5;stroke-miterlimit:10;}
	.paths
</style>
<g>
	<path class="st0 paths" stroke-dasharray="50" d="M490.5,187c1.3,4.2,1.8,5.1,1.9,6.2c4.3,46.5,8.1,93,12.9,139.4c6.4,61.9,13.6,123.8,20.6,185.6
		c3.4,29.9,7.1,59.7,10.9,89.6c2.8,22.5,28.6,35.1,46.9,22.8c10.1-6.8,10.6-17.9,9.7-28.3c-2.7-32.8-5.9-65.7-9.5-98.4
		c-4.6-41.4-9.7-82.8-14.9-124.2c-0.9-7-0.1-13.2,7.7-14.2c23.2-3.1,47.2-10.3,69.6-7c27.7,4,54.8,15.3,80.9,26.5
		c26.9,11.5,45.2,33.7,57.4,60c17.2,37.3,17.7,77.6,10.9,116.2c-10.7,60.7-48.8,101.7-106.9,122.1c-40.7,14.3-79.4,9.9-114.3-18.6
		c-22.8-18.7-39.5-42.1-56.5-65.5c-2.2-3-5-6.1-8.3-7.8c-11.3-5.6-23-10.5-33.2-15.1c-0.5-1.8-0.4-0.8,0,0
		C500.6,623,530.1,664.5,579,689c35,17.5,71.4,27.8,110,22.2c47.3-6.9,87.6-29.1,118.9-65.7c18.2-21.2,27.9-46.1,32.6-74.2
		c4.8-28.9,3.2-56.8-1.2-85c-5.5-35.5-24.7-63.3-51.1-86.8c-29.8-26.6-64.6-43.8-103-53.3c-24.2-6-48.5-12.1-74-9.8
		c-3.1,0.3-6.9-1.4-9.6-3.3c-0.9-0.6,0.1-5.5,1.6-7.4c7.5-9.1,15.3-17.9,23.3-26.6c10.8-11.8,22.5-23,32.7-35.3
		c13.7-16.4,26.7-33.5,39.6-50.5c23.9-31.4,43-64.6,38.5-106.4c-2.7-24.7-10.3-46.8-34.3-58.3c-10.9-5.2-23.2-7.8-35.2-10.3
		c-26.6-5.5-53.2-4.2-77.2,8.5c-21.6,11.5-41.7,26-61.9,40c-7.6,5.3-14.6,10.1-24.5,9.9c-2.7,0-7.7,3.9-7.7,6.2
		c-0.2,11.7-5.7,20.5-13.1,28.9c-8.1,9.2-16.3,18.6-23.4,28.6c-9.9,13.8-19.3,28-28.3,42.4c-5.5,8.9-2.9,28.6,6.3,31.7
		c12.9,4.3,24.5,1,31.2-11.2c3.3-6,5.9-12.4,9.3-18.3C481.9,199.3,485.7,194.1,490.5,187z M80,596.7c3-0.4,4.6-0.1,5.7-0.7
		c18.8-10.5,33.6-24.5,41.1-45.5c16.8-47,33.9-93.9,51.4-140.7c1.7-4.5,7.3-10.3,11.6-10.8c33.9-3.6,67.8-6,101.8-8.8
		c7.1-0.6,9.6,2.6,9.7,9.5c0.3,21-0.1,42,1.7,62.9c2.3,27.3,5.4,54.6,10.1,81.5c6.7,37.9,15,75.6,22.9,113.3
		c6,28.1,12,56.3,19.1,84.1c2,7.9,7.2,15.7,12.8,21.8c2.3,2.5,10.2,2,14.5,0.3c9.1-3.5,6.1-12.4,7-19.7c2.1-17.5,7.2-35,7.3-52.5
		c0.3-36.6-5.1-72.7-12.8-108.5c-5.1-23.5-9.1-47.3-12-71.2c-2.8-22.6-4-45.4-4.9-68.1c-0.8-19.4-0.2-38.9-0.2-58.9
		c2.2-0.7,4.9-1.8,7.7-2.2c12.5-1.7,25.4-1.7,37.3-5.2c10.7-3.2,21-9.1,29.9-15.9c4.1-3.1,4.5-11.2,6.5-17.1
		c-27.9,11.5-54.4,15.9-82.6,13.7c-0.7-13.7-1.9-26.3-1.9-38.9c0-43.9-3.1-87.7-12-130.6c-7.1-33.9-18-67-28.3-100.1
		c-5.1-16.5-30.5-25.3-45.6-17.1c-1.8,1-3.5,2.6-4.4,4.4c-4.7,9-9.8,17.8-13.4,27.3c-33.9,87.8-67.6,175.7-100.9,263.7
		c-4.2,11-10.9,16.5-22,17.8c-14,1.6-28.1,3.2-42.1,4.9c-26.4,3.2-52.7,6.5-79.1,9.7c-0.4,1.2-0.7,2.4-1.1,3.6
		c11.6,4.2,23.1,11.6,34.8,11.8c22.2,0.4,44.5-3.2,66.8-5.4c8.1-0.8,16.1-2.3,25.9-3.7C121,470,100.7,532.8,80,596.7z"/>
	<path class="st0 paths" stroke-dasharray="150" d="M490.5,187c-4.7,7.2-8.6,12.3-11.8,17.9c-3.4,5.9-6,12.3-9.3,18.3c-6.7,12.2-18.3,15.5-31.2,11.2
		c-9.2-3.1-11.9-22.8-6.3-31.7c9-14.4,18.4-28.7,28.3-42.4c7.2-10,15.3-19.3,23.4-28.6c7.4-8.4,12.9-17.2,13.1-28.9
		c0-2.2,5-6.2,7.7-6.2c9.8,0.1,16.8-4.7,24.5-9.9c20.2-14,40.2-28.5,61.9-40c24-12.7,50.7-14.1,77.2-8.5
		c11.9,2.5,24.3,5.1,35.2,10.3c24,11.4,31.7,33.6,34.3,58.3c4.5,41.8-14.6,75-38.5,106.4c-12.9,17.1-25.9,34.1-39.6,50.5
		c-10.3,12.3-21.9,23.4-32.7,35.3c-8,8.7-15.8,17.5-23.3,26.6c-1.5,1.8-2.4,6.7-1.6,7.4c2.7,1.9,6.4,3.6,9.6,3.3
		c25.4-2.3,49.8,3.8,74,9.8c38.4,9.5,73.2,26.7,103,53.3c26.4,23.5,45.6,51.3,51.1,86.8c4.4,28.2,6,56.2,1.2,85
		c-4.7,28.2-14.4,53-32.6,74.2c-31.3,36.6-71.6,58.8-118.9,65.7c-38.6,5.6-75.1-4.7-110-22.2c-49-24.5-78.5-65.9-102.7-112.6
		c-0.4-0.8-0.5-1.8,0,0c10.3,4.6,21.9,9.5,33.2,15.1c3.3,1.6,6.1,4.7,8.3,7.8c17,23.4,33.6,46.8,56.5,65.5
		c34.9,28.5,73.6,32.9,114.3,18.6c58-20.4,96.2-61.4,106.9-122.1c6.8-38.6,6.3-79-10.9-116.2c-12.2-26.4-30.5-48.5-57.4-60
		c-26.1-11.2-53.2-22.5-80.9-26.5c-22.4-3.3-46.4,3.9-69.6,7c-7.8,1.1-8.6,7.2-7.7,14.2c5.1,41.4,10.3,82.7,14.9,124.2
		c3.6,32.8,6.8,65.6,9.5,98.4c0.9,10.4,0.4,21.5-9.7,28.3c-18.4,12.3-44.1-0.3-46.9-22.8c-3.8-29.8-7.5-59.7-10.9-89.6
		c-7-61.9-14.2-123.7-20.6-185.6c-4.8-46.4-8.6-92.9-12.9-139.4C492.3,192.1,491.8,191.1,490.5,187z M560.4,295.8
		c1.1,0.3,2.2,0.7,3.3,1c3.4-2.9,7.2-5.4,10-8.8c15-18,30.1-36,44.5-54.5c22.2-28.5,44.5-57,65.7-86.3
		c13.9-19.3,14.9-41.9,10.9-64.6c-1.7-9.7-7.1-18.8-17.6-19.8c-12.4-1.2-25.6-1.4-37.5,1.4c-33,7.9-58.4,29.6-83.9,50.5
		c-3.2,2.6-5.1,8.7-5,13.1c0.4,13.3,2.7,26.6,3.2,39.9c1.2,32.6,1.6,65.1,2.9,97.7C557.3,275.5,559.2,285.6,560.4,295.8z"/>
	<path class="st0 paths" stroke-dasharray="200" d="M80,596.7c20.7-63.9,41.1-126.7,62-191.5c-9.7,1.4-17.8,2.9-25.9,3.7c-22.3,2.2-44.6,5.8-66.8,5.4
		c-11.7-0.2-23.2-7.6-34.8-11.8c0.4-1.2,0.7-2.4,1.1-3.6c26.4-3.2,52.7-6.5,79.1-9.7c14-1.7,28.1-3.3,42.1-4.9
		c11.1-1.3,17.8-6.8,22-17.8c33.3-88,67.1-175.9,100.9-263.7c3.6-9.4,8.8-18.3,13.4-27.3c0.9-1.8,2.7-3.4,4.4-4.4
		c15.1-8.3,40.5,0.6,45.6,17.1c10.3,33.1,21.2,66.2,28.3,100.1c8.9,42.9,12,86.7,12,130.6c0,12.6,1.2,25.3,1.9,38.9
		c28.2,2.2,54.7-2.2,82.6-13.7c-2.1,5.8-2.4,13.9-6.5,17.1c-8.9,6.8-19.2,12.7-29.9,15.9c-11.9,3.5-24.8,3.5-37.3,5.2
		c-2.8,0.4-5.4,1.5-7.7,2.2c0,19.9-0.6,39.4,0.2,58.9c0.9,22.7,2.2,45.6,4.9,68.1c2.9,23.9,6.9,47.7,12,71.2
		c7.8,35.8,13.1,71.9,12.8,108.5c-0.1,17.5-5.3,34.9-7.3,52.5c-0.9,7.4,2.1,16.2-7,19.7c-4.4,1.7-12.2,2.3-14.5-0.3
		c-5.6-6.1-10.7-13.8-12.8-21.8c-7.1-27.8-13.2-56-19.1-84.1c-8-37.7-16.3-75.3-22.9-113.3c-4.7-26.9-7.8-54.3-10.1-81.5
		c-1.8-20.9-1.5-41.9-1.7-62.9c-0.1-6.9-2.5-10.1-9.7-9.5c-33.9,2.9-67.9,5.3-101.8,8.8c-4.3,0.5-9.9,6.2-11.6,10.8
		c-17.6,46.7-34.7,93.6-51.4,140.7c-7.5,21-22.2,35-41.1,45.5C84.6,596.5,83,596.3,80,596.7z M286.6,130.9c-1.2-0.1-2.4-0.2-3.6-0.3
		c-2.3,4.6-5.1,8.9-6.9,13.7c-14.1,37.2-27.9,74.6-42.1,111.8c-13.2,34.5-26.9,68.8-40.2,103.2c-5.2,13.5-2.5,17,11.8,16.6
		c1.4,0,2.9-0.3,4.3-0.4c25.6-2,51.2-4.3,76.9-5.8c10.2-0.6,14.5-3.7,14.5-14.8c0-68.9-1.3-137.7-9.3-206.1
		C291.2,142.7,288.4,136.8,286.6,130.9z"/>
	<path class="st1 paths" stroke-dasharray="10" d="M560.4,295.8c-1.2-10.1-3.1-20.3-3.5-30.4c-1.2-32.6-1.6-65.1-2.9-97.7c-0.5-13.3-2.8-26.6-3.2-39.9
		c-0.1-4.4,1.8-10.5,5-13.1c25.5-20.8,50.9-42.5,83.9-50.5c12-2.9,25.1-2.6,37.5-1.4c10.4,1,15.8,10.1,17.6,19.8
		c4.1,22.7,3.1,45.3-10.9,64.6c-21.2,29.3-43.4,57.8-65.7,86.3c-14.4,18.5-29.5,36.5-44.5,54.5c-2.8,3.4-6.7,5.9-10,8.8
		C562.7,296.4,561.6,296.1,560.4,295.8z"/>
	<path class="st1 paths" stroke-dasharray="150" d="M286.6,130.9c1.8,5.9,4.5,11.7,5.2,17.8c8,68.5,9.4,137.3,9.3,206.1c0,11.1-4.3,14.3-14.5,14.8
		c-25.6,1.5-51.2,3.8-76.9,5.8c-1.4,0.1-2.9,0.4-4.3,0.4c-14.3,0.3-17-3.2-11.8-16.6c13.3-34.4,27-68.7,40.2-103.2
		c14.2-37.2,28-74.5,42.1-111.8c1.8-4.8,4.6-9.1,6.9-13.7C284.2,130.7,285.4,130.8,286.6,130.9z"/>
</g>
</svg>
