<?xml version="1.0" encoding="utf-8"?>
<!-- Generator: Adobe Illustrator 19.2.0, SVG Export Plug-In . SVG Version: 6.00 Build 0)  -->
<svg version="1.1" id="Layer_1" xmlns="http://www.w3.org/2000/svg" xmlns:xlink="http://www.w3.org/1999/xlink" x="0px" y="0px"
	 viewBox="0 0 268 259" style="enable-background:new 0 0 268 259;" xml:space="preserve">
<style type="text/css">
	.st0{fill:#FFFFFF;}
</style>
<g>
	<g>
		<path class="st0" d="M18.3,242.5c0-75,0-149.9,0-224.9c75.1,0,150.2,0,225.4,0c0,74.9,0,149.9,0,224.9
			C168.6,242.5,93.4,242.5,18.3,242.5z M142.6,86.1c0.2,0.1,0.4,0.2,0.6,0.3c0.2,1.4,0.4,2.9,0.5,4.3c0.9,9.4,1.6,18.9,2.6,28.3
			c1.5,14.3,3.1,28.6,4.8,42.9c0.8,6.9,1.6,13.7,2.5,20.6c0.7,5.1,6.9,8.2,10.8,4.9c1.5-1.2,2.2-4.1,2.1-6.2
			c-0.4-7.7-1.3-15.4-2.2-23.1c-1-9.4-2.2-18.9-3.4-28.3c-0.2-1.5,0.1-2.8,1.7-3.1c5.2-0.7,10.4-2,15.5-1.8
			c6.9,0.3,13.2,3.2,19.3,6.3c6.2,3.1,10.7,8,13.2,14.4c3.8,9.2,3.6,18.8,1.7,28.4c-3.1,15.1-19.4,27.8-34.2,27.4
			c-5.3-0.1-9.9-1.7-14.2-4.6c-6.2-4.3-10.5-10.3-14.8-16.4c-0.5-0.7-1-1.4-1.6-1.8c-2.7-1.3-5.5-2.5-7.8-3.5
			c5.1,10.7,12.4,20.4,24,26.1c8.3,4,16.9,6,26.1,4.6c7.4-1.2,14-4.6,19.7-9.1c3.6-2.8,6.9-6.5,9.3-10.5c5.1-8.3,5.5-17.6,4.8-27.2
			c-0.9-11.9-6.5-20.9-15.8-27.6c-10.8-7.8-23.2-11.7-36.7-11.6c-0.5,0-1,0.1-1.5,0c-1.5-0.3-2.1-1.1-1-2.4c1.7-2.1,3.5-4.1,5.4-6.1
			c2.5-2.7,5.2-5.3,7.5-8.1c3.2-3.8,6.1-7.7,9.1-11.6c5.5-7.2,9.9-14.8,8.9-24.4c-0.6-5.7-2.3-10.8-7.8-13.4
			c-2.5-1.2-5.3-1.8-8.1-2.4c-6.2-1.3-12.4-1-18,2c-5,2.6-9.4,6.2-14.3,9.1c-1.6,1-3.5,1.7-5.4,2.1c-1.2,0.3-1.7,0.6-2,2
			c-0.4,1.9-1.1,3.8-2.2,5.3c-3.7,5.1-7.7,10.1-11.3,15.2c-1,1.4-1.3,3.4-1.7,5.2c-0.4,2.1,0.4,3.6,2.6,4.2c2.6,0.7,5.1-0.1,6.1-2
			c0.9-1.6,1.6-3.3,2.5-4.9C141,88.6,141.8,87.4,142.6,86.1z M114.3,125c-0.2-3.1-0.4-6-0.4-8.9c0-10.2-0.7-20.3-2.8-30.2
			c-1.6-7.8-4.1-15.4-6.6-23c-1.2-3.6-7-5.5-10.4-3.8c-0.4,0.2-0.8,0.6-1,1c-1.1,2.1-2.3,4.1-3.1,6.3c-7.4,19.1-14.9,38.1-22,57.3
			c-1.7,4.7-3.6,8.1-9.2,7.7c-0.8-0.1-1.6,0.2-2.5,0.3c-7.5,0.9-14.9,1.8-22.4,2.7c-0.1,0.3-0.2,0.5-0.2,0.8c2.6,1,5.1,2.7,7.7,2.8
			c5.2,0.1,10.4-0.7,15.6-1.2c1.9-0.2,3.8-0.5,6-0.8c-4.9,15-9.5,29.4-14.3,44.1c4.7-1.4,9.1-6.1,10.7-10.5
			c3.9-10.9,7.8-21.7,11.9-32.5c0.4-1.1,1.8-2.4,2.9-2.5c7.7-0.8,15.4-1.4,23.1-2c1.6-0.1,2.2,0.5,2.3,2.1c0.1,4.9,0,9.8,0.4,14.7
			c0.5,6.1,1.1,12.2,2.2,18.3c1.6,8.8,3.5,17.5,5.4,26.2c1.4,6.5,2.8,12.9,4.4,19.3c0.5,1.8,1.6,3.6,2.9,5c0.5,0.6,2.4,0.5,3.3,0.1
			c2-0.8,1.5-2.8,1.6-4.5c0.4-4,1.6-8,1.7-12c0.1-8.4-1.1-16.7-2.9-24.9c-1.2-5.4-2.1-10.9-2.8-16.4c-0.7-5.8-1.1-11.6-1.4-17.4
			c-0.2-4,0-7.9,0-12c1.6-0.2,2.9-0.3,4.2-0.5c2.9-0.5,6-0.7,8.7-1.6c3.3-1.1,6.7-3.5,5.3-7.3C126.9,124.4,120.9,125.5,114.3,125z"
			/>
		<path d="M142.6,86.1c-0.8,1.3-1.7,2.5-2.4,3.8c-0.9,1.6-1.6,3.3-2.5,4.9c-1,1.9-3.6,2.7-6.1,2c-2.1-0.6-3-2.1-2.6-4.2
			c0.4-1.8,0.7-3.8,1.7-5.2c3.6-5.2,7.6-10.1,11.3-15.2c1.1-1.5,1.8-3.5,2.2-5.3c0.3-1.3,0.8-1.7,2-2c1.9-0.5,3.7-1.1,5.4-2.1
			c4.8-3,9.3-6.5,14.3-9.1c5.6-3,11.8-3.3,18-2c2.7,0.6,5.6,1.2,8.1,2.4c5.6,2.6,7.2,7.8,7.8,13.4c1,9.6-3.4,17.2-8.9,24.4
			c-3,3.9-5.9,7.8-9.1,11.6c-2.4,2.8-5,5.4-7.5,8.1c-1.8,2-3.6,4-5.4,6.1c-1.1,1.3-0.5,2.1,1,2.4c0.5,0.1,1,0,1.5,0
			c13.5,0,25.9,3.8,36.7,11.6c9.3,6.7,14.9,15.7,15.8,27.6c0.7,9.6,0.3,18.9-4.8,27.2c-2.4,3.9-5.7,7.7-9.3,10.5
			c-5.8,4.5-12.3,7.9-19.7,9.1c-9.2,1.4-17.8-0.6-26.1-4.6c-11.7-5.7-18.9-15.4-24-26.1c2.3,1,5.1,2.1,7.8,3.5
			c0.7,0.3,1.2,1.1,1.6,1.8c4.3,6.1,8.5,12.1,14.8,16.4c4.3,2.9,8.9,4.4,14.2,4.6c14.8,0.4,31.1-12.3,34.2-27.4
			c1.9-9.6,2-19.2-1.7-28.4c-2.6-6.4-7.1-11.3-13.2-14.4c-6.1-3.1-12.4-6-19.3-6.3c-5.1-0.2-10.3,1.1-15.5,1.8
			c-1.7,0.2-1.9,1.6-1.7,3.1c1.2,9.4,2.3,18.8,3.4,28.3c0.9,7.7,1.7,15.4,2.2,23.1c0.1,2.1-0.7,5-2.1,6.2
			c-3.8,3.3-10.1,0.3-10.8-4.9c-0.9-6.8-1.7-13.7-2.5-20.6c-1.6-14.3-3.3-28.6-4.8-42.9c-1-9.4-1.7-18.9-2.6-28.3
			c-0.1-1.5-0.4-2.9-0.5-4.3C143,86.3,142.8,86.2,142.6,86.1z M159,110.6c0.3,0.1,0.5,0.2,0.8,0.3c0.7-0.6,1.6-1.1,2.2-1.8
			c3.4-4.1,6.9-8.3,10.2-12.5c5.2-6.6,10.3-13.2,15.2-20c3.2-4.4,3.4-9.6,2.4-14.8c-0.4-2.3-1.8-4.4-4.3-4.6c-2.9-0.2-6,0-8.8,0.6
			c-7.4,1.7-12.9,6.7-18.6,11.3c-0.8,0.6-1.3,2-1.3,2.9c0.1,3.6,0.6,7.1,0.8,10.7c0.3,7,0.4,14,0.7,20.9
			C158.3,105.9,158.7,108.2,159,110.6z"/>
		<path d="M114.3,125c6.6,0.5,12.7-0.5,18.3-3.5c1.3,3.9-2.1,6.2-5.3,7.3c-2.8,0.9-5.8,1.2-8.7,1.6c-1.3,0.2-2.6,0.3-4.2,0.5
			c0,4.1-0.2,8.1,0,12c0.3,5.8,0.7,11.6,1.4,17.4c0.7,5.5,1.6,11,2.8,16.4c1.8,8.2,3,16.5,2.9,24.9c0,4-1.2,8-1.7,12
			c-0.2,1.7,0.4,3.7-1.6,4.5c-1,0.4-2.8,0.5-3.3-0.1c-1.3-1.4-2.4-3.2-2.9-5c-1.6-6.4-3-12.9-4.4-19.3c-1.9-8.7-3.8-17.5-5.4-26.2
			c-1.1-6-1.7-12.1-2.2-18.3c-0.4-4.9-0.3-9.8-0.4-14.7c0-1.6-0.7-2.3-2.3-2.1c-7.7,0.6-15.4,1.2-23.1,2c-1.1,0.1-2.5,1.5-2.9,2.5
			c-4.1,10.8-8,21.7-11.9,32.5c-1.6,4.4-5.9,9-10.7,10.5c4.8-14.7,9.4-29.1,14.3-44.1c-2.2,0.3-4.1,0.7-6,0.8
			c-5.2,0.5-10.4,1.3-15.6,1.2c-2.6,0-5.1-1.8-7.7-2.8c0.1-0.3,0.2-0.5,0.2-0.8c7.5-0.9,14.9-1.8,22.4-2.7c0.8-0.1,1.7-0.4,2.5-0.3
			c5.6,0.4,7.5-3,9.2-7.7c7.1-19.2,14.6-38.2,22-57.3c0.8-2.2,2-4.2,3.1-6.3c0.2-0.4,0.6-0.8,1-1c3.4-1.8,9.2,0.1,10.4,3.8
			c2.4,7.6,4.9,15.2,6.6,23c2.1,9.9,2.8,20.1,2.8,30.2C113.8,119,114.1,121.9,114.3,125z M96.2,72.9c-0.4,0-0.8-0.1-1.2-0.1
			c-7,18.5-14.1,37-21.3,56.1c2.2,0.1,3.5,0.3,4.8,0.2c6-0.4,11.9-1,17.9-1.3c2.2-0.1,3.2-0.8,3.2-3.3c0-15.8-0.3-31.6-2.1-47.3
			C97.2,75.6,96.6,74.3,96.2,72.9z"/>
		<path class="st0" d="M159,110.6c-0.3-2.4-0.7-4.7-0.8-7.1c-0.3-7-0.4-14-0.7-20.9c-0.1-3.6-0.7-7.1-0.8-10.7c0-1,0.5-2.3,1.3-2.9
			c5.7-4.6,11.3-9.5,18.6-11.3c2.8-0.7,5.9-0.8,8.8-0.6c2.5,0.1,3.9,2.2,4.3,4.6c1,5.2,0.8,10.4-2.4,14.8
			c-4.9,6.8-10.1,13.4-15.2,20c-3.3,4.3-6.8,8.4-10.2,12.5c-0.6,0.7-1.5,1.2-2.2,1.8C159.5,110.8,159.3,110.7,159,110.6z"/>
		<path class="st0" d="M96.2,72.9c0.4,1.4,1,2.7,1.2,4.2c1.8,15.7,2.1,31.5,2.1,47.3c0,2.5-1,3.2-3.2,3.3c-6,0.4-11.9,0.9-17.9,1.3
			c-1.3,0.1-2.6-0.1-4.8-0.2c7.2-19,14.3-37.5,21.3-56.1C95.4,72.8,95.8,72.8,96.2,72.9z"/>
	</g>
</g>
</svg>
